# xmcd CD database file
#
# Track frame offsets:
#	150
#	97870
#	202726
#
# Disc length: 3988 seconds
#
# Revision: 0
# Processed by: cddbd v1.5.2PL0 Copyright (c) Steve Scherf et al.
# Submitted via: CDex 1.51
#
DISCID=160f9203
DTITLE=Orin - Attracting Your Soul Mate
DYEAR=1900
DGENRE=New Age
TTITLE0=Exploring the Possible Relationship
TTITLE1=Preparing for Your Soul Mate
TTITLE2=Talking to Your Inner Advisor
EXTD=
EXTT0=
EXTT1=
EXTT2=
PLAYORDER=
